<svg width="47" height="48" viewBox="0 0 47 48" fill="none" xmlns="http://www.w3.org/2000/svg">
<g clip-path="url(#clip0_2_19)">
<path d="M46.0231 22.9778L40.0602 16.9368C38.8817 15.7797 37.1419 17.5331 38.2924 18.7328L43.4976 24.0001L23.722 44.0186L3.94633 24.0001L23.722 3.98155L29.1447 9.47599C30.3302 10.6331 32.063 8.87969 30.9125 7.68L24.7251 1.41889C24.185 0.85809 23.2379 0.85809 22.6978 1.41889L1.40686 22.9707C0.852662 23.5174 0.852662 24.4757 1.40686 25.0223L8.8008 32.5044V38.1408C8.49213 38.4035 8.28869 38.801 8.28869 39.2411C8.28869 39.6812 8.47109 40.0433 8.75871 40.3059L6.73835 45.8998V45.9282C6.71029 45.9991 6.70328 46.0701 6.70328 46.1411C6.70328 46.3683 6.79447 46.5741 6.94179 46.7232C7.08911 46.8723 7.29956 46.9717 7.53106 46.9717H11.9085C12.14 46.9717 12.3505 46.8723 12.4978 46.7232C12.6451 46.5741 12.7363 46.3683 12.7363 46.1411C12.7363 46.063 12.7223 45.9849 12.7012 45.9069V45.8714L10.6879 40.3059C10.9755 40.0433 11.1509 39.667 11.1509 39.2411C11.1509 38.7939 10.9474 38.4035 10.6388 38.1408V34.3643L10.6668 34.3927L22.7118 46.5812C23.252 47.142 24.199 47.142 24.7322 46.5812L46.0231 25.0294C46.8999 24.1491 46.1984 23.1624 46.0231 22.9778Z" fill="#ED8B00"/>
<path d="M22.81 16.9225C22.6767 16.5746 22.347 16.3475 21.9752 16.3475H15.5002C15.0162 16.3475 14.6023 16.7592 14.6023 17.2561C14.6023 17.4052 14.6374 17.5543 14.7145 17.6891L22.9433 32.8805C23.0204 33.0296 23.1467 33.1502 23.287 33.2354C23.6729 33.4626 24.185 33.3561 24.4515 32.987L44.8796 5.01074C44.9988 4.85456 45.055 4.6558 45.055 4.47123C45.055 3.98141 44.6481 3.55549 44.157 3.56259H37.4225C37.1208 3.56259 36.8402 3.71876 36.6719 3.97432L24.8935 22.282L22.803 16.9225H22.81Z" fill="#ED8B00"/>
</g>
<defs>
<clipPath id="clip0_2_19">
<rect width="45.4635" height="46.0035" fill="white" transform="translate(0.991211 0.998291)"/>
</clipPath>
</defs>
</svg>
