<svg width="63" height="64" viewBox="0 0 63 64" fill="none" xmlns="http://www.w3.org/2000/svg">
<rect x="0.991211" y="0.998291" width="62" height="62.0035" rx="5" fill="#031D32"/>
<path d="M54.5544 30.9778L48.5212 24.9368C47.3287 23.7797 45.5685 25.5331 46.7325 26.7328L51.9992 32.0001L31.9902 52.0186L11.9812 32.0001L31.9902 11.9815L37.4769 17.476C38.6764 18.6331 40.4296 16.8797 39.2655 15.68L33.0052 9.41889C32.4586 8.85809 31.5004 8.85809 30.9539 9.41889L9.41176 30.9707C8.85103 31.5174 8.85103 32.4757 9.41176 33.0223L16.8929 40.5044V46.1408C16.5806 46.4035 16.3748 46.801 16.3748 47.2411C16.3748 47.6812 16.5593 48.0433 16.8504 48.3059L14.8062 53.8998V53.9282C14.7778 53.9991 14.7707 54.0701 14.7707 54.1411C14.7707 54.3683 14.8629 54.5741 15.012 54.7232C15.1611 54.8723 15.374 54.9717 15.6082 54.9717H20.0373C20.2715 54.9717 20.4845 54.8723 20.6335 54.7232C20.7826 54.5741 20.8749 54.3683 20.8749 54.1411C20.8749 54.063 20.8607 53.9849 20.8394 53.9069V53.8714L18.8023 48.3059C19.0933 48.0433 19.2707 47.667 19.2707 47.2411C19.2707 46.7939 19.0649 46.4035 18.7526 46.1408V42.3643L18.781 42.3927L30.9681 54.5812C31.5146 55.142 32.4728 55.142 33.0123 54.5812L54.5544 33.0294C55.4416 32.1491 54.7319 31.1624 54.5544 30.9778Z" fill="#ED8B00"/>
<path d="M31.0675 24.9225C30.9326 24.5746 30.599 24.3475 30.2228 24.3475H23.6715C23.1817 24.3475 22.7629 24.7592 22.7629 25.2561C22.7629 25.4052 22.7984 25.5543 22.8765 25.6891L31.2023 40.8805C31.2804 41.0296 31.4082 41.1502 31.5501 41.2354C31.9405 41.4626 32.4587 41.3561 32.7284 40.987L53.3975 13.0107C53.5181 12.8546 53.5749 12.6558 53.5749 12.4712C53.5749 11.9814 53.1632 11.5555 52.6664 11.5626H45.8524C45.5472 11.5626 45.2633 11.7188 45.0929 11.9743L33.1756 30.282L31.0604 24.9225H31.0675Z" fill="#ED8B00"/>
</svg>
