<svg width="173" height="46" viewBox="0 0 173 46" fill="none" xmlns="http://www.w3.org/2000/svg">
<g clip-path="url(#clip0_83_2819)">
<path d="M63.9218 20.1463H65.2687V19.4222C65.2687 16.6537 63.543 15.674 61.3122 15.674C58.1133 15.674 55.2511 17.7611 55.2511 17.7611L53.2729 14.0129C53.2729 14.0129 56.598 11.3296 61.7752 11.3296C67.5416 11.3296 70.6143 14.3537 70.6143 19.8907V28.5796C70.6143 29.2185 70.951 29.5166 71.5403 29.5166H73.4764V33.5629H68.4256C66.4473 33.5629 65.6897 32.4981 65.6897 31.2629V31.0074C65.6897 30.3259 65.8159 29.9 65.8159 29.9H65.7317C65.7317 29.9 63.9218 34.074 58.9551 34.074C55.2932 34.074 51.8418 31.9018 51.8418 27.4722C51.8418 20.8277 60.4704 20.1463 63.9218 20.1463ZM60.3441 30.0277C63.2484 30.0277 65.3108 26.8759 65.3108 24.15V23.4259H64.4269C62.3224 23.4259 57.2294 23.7666 57.2294 27.0463C57.2294 28.6648 58.3659 30.0277 60.3441 30.0277Z" fill="#031D32"/>
<path d="M77.3979 38.0351V16.824C77.3979 16.2277 77.0612 15.887 76.4719 15.887H74.0728V11.8407H79.5866C81.5649 11.8407 82.2384 12.7777 82.2384 13.8851V14.0129C82.2384 14.524 82.1963 14.9926 82.1963 14.9926H82.2805C82.2805 14.9926 84.1324 11.3296 89.1833 11.3296C94.9919 11.3296 98.6958 15.9722 98.6958 22.7018C98.6958 29.4314 94.5289 34.074 88.8887 34.074C84.6375 34.074 82.7014 31.0074 82.7014 31.0074H82.6172C82.6172 31.0074 82.7434 31.774 82.7434 32.8814V38.0351H85.8582V42.0814H74.2832V38.0351H77.3979ZM87.9206 29.5166C90.867 29.5166 93.3082 27.0888 93.3082 22.787C93.3082 18.4851 91.1195 15.9722 87.9627 15.9722C85.1847 15.9722 82.5751 18.0166 82.5751 22.8296C82.5751 26.1944 84.4271 29.5166 87.9206 29.5166Z" fill="#031D32"/>
<path d="M103.634 38.0351V16.824C103.634 16.2277 103.298 15.887 102.708 15.887H100.309V11.8407H105.823C107.801 11.8407 108.475 12.7777 108.475 13.8851V14.0129C108.475 14.524 108.433 14.9926 108.433 14.9926H108.517C108.517 14.9926 110.369 11.3296 115.42 11.3296C121.228 11.3296 124.932 15.9722 124.932 22.7018C124.932 29.4314 120.765 34.074 115.125 34.074C110.874 34.074 108.938 31.0074 108.938 31.0074H108.854C108.854 31.0074 108.98 31.774 108.98 32.8814V38.0351H112.095V42.0814H100.52V38.0351H103.634ZM114.157 29.5166C117.104 29.5166 119.545 27.0888 119.545 22.787C119.545 18.4851 117.356 15.9722 114.199 15.9722C111.421 15.9722 108.812 18.0166 108.812 22.8296C108.812 26.1944 110.664 29.5166 114.157 29.5166Z" fill="#031D32"/>
<path d="M127.023 30.3686H130.348V15.2056H126.812V12.0112H134.431V30.3686H137.798V33.563H127.023V30.3686ZM130.264 3.49268H134.557V7.70934H130.264V3.49268Z" fill="#031D32"/>
<path d="M141.376 6.68712H137.84V3.49268H145.459V27.1742C145.459 29.0056 145.879 30.2408 147.731 30.2408C148.405 30.2408 148.868 30.1982 148.868 30.1982L148.826 33.6056C148.826 33.6056 147.984 33.6908 147.016 33.6908C143.985 33.6908 141.376 32.4556 141.376 27.4297V6.68712Z" fill="#031D32"/>
<path d="M154.277 39.0575C156.087 39.0575 157.476 37.7797 158.191 36.076L159.075 33.9464L151.625 15.2057H148.931V12.0112H158.654V15.2057H155.834L160.59 28.026C160.885 28.9631 160.969 29.9001 160.969 29.9001H161.095C161.095 29.9001 161.264 28.9631 161.6 28.026L166.315 15.2057H163.579V12.0112H173.007V15.2057H170.355L161.937 36.9705C160.506 40.6335 157.728 42.5075 154.445 42.5075C151.709 42.5075 149.857 41.1446 149.857 41.1446L151.246 38.0353C151.246 38.0353 152.467 39.0575 154.277 39.0575Z" fill="#031D32"/>
<path d="M45.0231 21.9778L39.0602 15.9368C37.8817 14.7797 36.1419 16.5331 37.2924 17.7328L42.4976 23.0001L22.722 43.0186L2.94633 23.0001L22.722 2.98155L28.1447 8.47599C29.3302 9.63309 31.063 7.87969 29.9125 6.68L23.7251 0.418893C23.185 -0.14191 22.2379 -0.14191 21.6978 0.418893L0.406857 21.9707C-0.147338 22.5174 -0.147338 23.4757 0.406857 24.0223L7.8008 31.5044V37.1408C7.49213 37.4035 7.28869 37.801 7.28869 38.2411C7.28869 38.6812 7.47109 39.0433 7.75871 39.3059L5.73835 44.8998V44.9282C5.71029 44.9991 5.70328 45.0701 5.70328 45.1411C5.70328 45.3683 5.79447 45.5741 5.94179 45.7232C6.08911 45.8723 6.29956 45.9717 6.53106 45.9717H10.9085C11.14 45.9717 11.3505 45.8723 11.4978 45.7232C11.6451 45.5741 11.7363 45.3683 11.7363 45.1411C11.7363 45.063 11.7223 44.9849 11.7012 44.9069V44.8714L9.68787 39.3059C9.97549 39.0433 10.1509 38.667 10.1509 38.2411C10.1509 37.7939 9.94743 37.4035 9.63876 37.1408V33.3643L9.66682 33.3927L21.7118 45.5812C22.252 46.142 23.199 46.142 23.7322 45.5812L45.0231 24.0294C45.8999 23.1491 45.1984 22.1624 45.0231 21.9778Z" fill="#ED8B00"/>
<path d="M21.81 15.9225C21.6767 15.5746 21.347 15.3475 20.9752 15.3475H14.5002C14.0162 15.3475 13.6023 15.7592 13.6023 16.2561C13.6023 16.4052 13.6374 16.5543 13.7145 16.6891L21.9433 31.8805C22.0204 32.0296 22.1467 32.1502 22.287 32.2354C22.6729 32.4626 23.185 32.3561 23.4515 31.987L43.8796 4.01074C43.9988 3.85456 44.055 3.6558 44.055 3.47123C44.055 2.98141 43.6481 2.55549 43.157 2.56259H36.4225C36.1208 2.56259 35.8402 2.71876 35.6719 2.97432L23.8935 21.282L21.803 15.9225H21.81Z" fill="#ED8B00"/>
</g>
<defs>
<clipPath id="clip0_83_2819">
<rect width="173" height="46" fill="white"/>
</clipPath>
</defs>
</svg>
